<svg xmlns="http://www.w3.org/2000/svg" xmlns:xlink="http://www.w3.org/1999/xlink" width="39" height="45" viewBox="0 0 39 45"><defs><path id="2z31a" d="M925 1154v-36h27v36zm16.07-34.08a4.976 4.976 0 0 1-4.96 4.962 4.961 4.961 0 0 1-4.05-2.11 3.294 3.294 0 0 1-2.593 1.283h-1.627a3.264 3.264 0 0 1-1.71-.493v25.3a4.147 4.147 0 0 0 4.135 4.135h16.538a4.147 4.147 0 0 0 4.135-4.135v-28.942z"/><path id="2z31b" d="M955.902 1126.73h-4.962v3.308h3.308c.91 0 1.654.744 1.654 1.654v8.269c0 .91-.745 1.654-1.654 1.654h-3.308v3.307h4.962a3.317 3.317 0 0 0 3.307-3.307v-11.577a3.317 3.317 0 0 0-3.307-3.308"/><path id="2z31c" d="M945.98 1113.308c-1.143 0-2.193.39-3.032 1.04a4.958 4.958 0 0 0-6.383-2.284 5.36 5.36 0 0 0-4.228-2.064 5.375 5.375 0 0 0-5.256 4.254 4.105 4.105 0 0 0-.946-.12 4.135 4.135 0 0 0-4.135 4.135v6.616c0 .91.744 1.653 1.654 1.653h.827c.91 0 1.654-.744 1.654-1.653v-1.32a3.262 3.262 0 0 0 1.71.493h1.626a3.294 3.294 0 0 0 2.593-1.283 4.961 4.961 0 0 0 4.05 2.11 4.976 4.976 0 0 0 4.961-4.962h9.579a4.937 4.937 0 0 0 .288-1.654 4.961 4.961 0 0 0-4.961-4.961"/><path id="2z31d" d="M941.07 1119.92a4.976 4.976 0 0 1-4.96 4.962 4.961 4.961 0 0 1-4.05-2.11 3.294 3.294 0 0 1-2.593 1.283h-1.627a3.264 3.264 0 0 1-1.71-.493v25.3a4.147 4.147 0 0 0 4.135 4.135h16.538a4.147 4.147 0 0 0 4.135-4.135v-28.942z"/><path id="2z31f" d="M939 1136.5a1.5 1.5 0 1 1 3 0 1.5 1.5 0 0 1-3 0z"/><path id="2z31g" d="M934 1140.5a1.5 1.5 0 1 1 3 0 1.5 1.5 0 0 1-3 0z"/><path id="2z31h" d="M933 1132.5a1.5 1.5 0 1 1 3 0 1.5 1.5 0 0 1-3 0z"/><clipPath id="2z31e"><use fill="#fff" xlink:href="#2z31a"/></clipPath></defs><g><g transform="translate(-921 -1109)"><g><use fill="#fff" xlink:href="#2z31b"/><use fill="#fff" fill-opacity="0" stroke="#333" stroke-miterlimit="50" xlink:href="#2z31b"/></g><g><g><use fill="#fff" xlink:href="#2z31c"/><use fill="#fff" fill-opacity="0" stroke="#333" stroke-linecap="round" stroke-linejoin="round" stroke-miterlimit="50" xlink:href="#2z31c"/></g></g><g><use fill="#eebf4c" xlink:href="#2z31d"/><use fill="#fff" fill-opacity="0" stroke="#333" stroke-linecap="round" stroke-linejoin="round" stroke-miterlimit="50" stroke-width="2" clip-path="url(&quot;#2z31e&quot;)" xlink:href="#2z31d"/></g><g><use fill="#fff" xlink:href="#2z31f"/></g><g><use fill="#fff" xlink:href="#2z31g"/></g><g><use fill="#fff" xlink:href="#2z31h"/></g></g></g></svg>