<svg xmlns="http://www.w3.org/2000/svg" xmlns:xlink="http://www.w3.org/1999/xlink" width="42" height="45" viewBox="0 0 42 45"><defs><path id="ce7ra" d="M341.975 1119c-.297 0-.593-.113-.819-.339l-3.818-3.818a1.15 1.15 0 0 1-.338-.818c0-.31.12-.6.338-.818l3.818-3.819a1.159 1.159 0 0 1 1.637 0l3.818 3.819c.218.218.338.508.338.818 0 .31-.12.6-.338.818l-3.818 3.818a1.153 1.153 0 0 1-.818.339m0-8.985c-.05 0-.1.018-.137.055l-3.818 3.818a.192.192 0 0 0-.056.137c0 .03.007.088.056.136l3.818 3.819a.196.196 0 0 0 .273 0l3.818-3.819a.192.192 0 0 0 .056-.136.192.192 0 0 0-.056-.137l-3.818-3.818a.192.192 0 0 0-.136-.055"/><path id="ce7rb" d="M342.222 1115.956a.482.482 0 0 1-.482-.483v-.01a.482.482 0 1 1 .964 0v.01a.482.482 0 0 1-.482.483"/><path id="ce7rc" d="M340.922 1113.696a.482.482 0 0 1-.482-.482v-.012a.482.482 0 0 1 .964 0v.012a.482.482 0 0 1-.482.482"/><path id="ce7rd" d="M343.282 1113.936a.482.482 0 0 1-.482-.482v-.012a.482.482 0 0 1 .964 0v.012a.482.482 0 0 1-.482.482"/><path id="ce7re" d="M331.975 1124c-.297 0-.593-.113-.819-.339l-3.818-3.818a1.15 1.15 0 0 1-.338-.818c0-.31.12-.6.338-.818l3.818-3.819a1.159 1.159 0 0 1 1.637 0l3.818 3.819c.218.218.338.508.338.818 0 .31-.12.6-.338.818l-3.818 3.818a1.153 1.153 0 0 1-.818.339m0-8.985c-.05 0-.1.018-.137.055l-3.818 3.818a.192.192 0 0 0-.056.137c0 .03.007.088.056.136l3.818 3.819a.196.196 0 0 0 .273 0l3.818-3.819a.192.192 0 0 0 .056-.136.192.192 0 0 0-.056-.137l-3.818-3.818a.192.192 0 0 0-.136-.055"/><path id="ce7rf" d="M332.222 1120.956a.482.482 0 0 1-.482-.483v-.01a.482.482 0 1 1 .964 0v.01a.482.482 0 0 1-.482.483"/><path id="ce7rg" d="M330.922 1118.696a.482.482 0 0 1-.482-.482v-.012a.482.482 0 0 1 .964 0v.012a.482.482 0 0 1-.482.482"/><path id="ce7rh" d="M333.282 1118.936a.482.482 0 0 1-.482-.482v-.012a.482.482 0 0 1 .964 0v.012a.482.482 0 0 1-.482.482"/><path id="ce7ri" d="M355.443 1125.31h-4.373v1.458h4.373a2.193 2.193 0 0 1 2.186 2.186v2.915a2.193 2.193 0 0 1-2.186 2.187h-4.373v1.457h4.373a3.644 3.644 0 0 0 3.644-3.644v-2.915a3.644 3.644 0 0 0-3.644-3.644"/><path id="ce7rj" d="M351.065 1134.056v8.746a4.373 4.373 0 0 1-4.373 4.372h-18.95a4.373 4.373 0 0 1-4.372-4.372v-15.957c0-.848.687-1.535 1.535-1.535h26.16z"/><path id="ce7rk" d="M355.189 1147.17h-35.937a.252.252 0 0 0-.252.252v2.411c0 .14.113.252.252.252h1.934l1.094 1.458.553.738a1.8 1.8 0 0 0 1.44.72h25.895a1.8 1.8 0 0 0 1.44-.72l.553-.738 1.093-1.458h1.935c.139 0 .252-.113.252-.252v-2.41a.252.252 0 0 0-.252-.253"/></defs><g><g transform="translate(-318 -1109)"><g><g><use fill="#333" xlink:href="#ce7ra"/></g></g><g><use fill="#333" xlink:href="#ce7rb"/></g><g><use fill="#333" xlink:href="#ce7rc"/></g><g><use fill="#333" xlink:href="#ce7rd"/></g></g><g transform="rotate(-32 -1760.771 1118.999)"><g><g><use fill="#333" xlink:href="#ce7re"/></g></g><g><use fill="#333" xlink:href="#ce7rf"/></g><g><use fill="#333" xlink:href="#ce7rg"/></g><g><use fill="#333" xlink:href="#ce7rh"/></g></g><g transform="translate(-318 -1109)"><g><use fill="#333" xlink:href="#ce7ri"/><use fill="#fff" fill-opacity="0" stroke="#fff" stroke-miterlimit="50" stroke-width=".4" xlink:href="#ce7ri"/></g><g><use fill="#f3f3f3" xlink:href="#ce7rj"/><use fill="#fff" fill-opacity="0" stroke="#333" stroke-miterlimit="50" stroke-width=".9" xlink:href="#ce7rj"/></g><g><use fill="#d9d9d9" xlink:href="#ce7rk"/><use fill="#fff" fill-opacity="0" stroke="#333" stroke-miterlimit="50" stroke-width=".9" xlink:href="#ce7rk"/></g></g></g></svg>