<svg xmlns="http://www.w3.org/2000/svg" xmlns:xlink="http://www.w3.org/1999/xlink" width="42" height="45" viewBox="0 0 42 45"><defs><path id="aks6a" d="M556.443 1125.31h-4.373v1.458h4.373a2.193 2.193 0 0 1 2.186 2.186v2.915a2.193 2.193 0 0 1-2.186 2.187h-4.373v1.457h4.373a3.644 3.644 0 0 0 3.644-3.644v-2.915a3.644 3.644 0 0 0-3.644-3.644"/><path id="aks6b" d="M552.065 1134.056v8.746a4.373 4.373 0 0 1-4.373 4.372h-18.95a4.373 4.373 0 0 1-4.372-4.372v-15.957c0-.848.687-1.535 1.535-1.535h26.16z"/><path id="aks6c" d="M556.189 1147.17h-35.937a.252.252 0 0 0-.252.252v2.411c0 .14.113.252.252.252h1.934l1.094 1.458.553.738a1.8 1.8 0 0 0 1.44.72h25.895a1.8 1.8 0 0 0 1.44-.72l.553-.738 1.093-1.458h1.935c.139 0 .252-.113.252-.252v-2.41a.252.252 0 0 0-.252-.253"/><path id="aks6d" d="M534.173 1121.661h-.649a.404.404 0 0 1-.404-.404v-2.511a3.648 3.648 0 0 1 3.644-3.644h1.782a2.59 2.59 0 0 0 2.591-2.591v-2.107c0-.223.181-.404.404-.404h.65c.223 0 .404.181.404.404v2.511a3.648 3.648 0 0 1-3.644 3.644h-1.783a2.59 2.59 0 0 0-2.59 2.591v2.107a.404.404 0 0 1-.405.404"/><path id="aks6e" d="M542.913 1121.663h-.649a.404.404 0 0 1-.404-.404v-1.053a3.648 3.648 0 0 1 3.644-3.644h1.782a2.59 2.59 0 0 0 2.591-2.591v-2.107c0-.223.181-.404.404-.404h.65c.223 0 .404.181.404.404v2.511a3.648 3.648 0 0 1-3.644 3.644h-1.783a2.59 2.59 0 0 0-2.59 2.591v.65a.404.404 0 0 1-.405.403"/></defs><g><g transform="translate(-519 -1109)"><g><use fill="#333" xlink:href="#aks6a"/><use fill="#fff" fill-opacity="0" stroke="#fff" stroke-miterlimit="50" stroke-width=".4" xlink:href="#aks6a"/></g><g><use fill="#f3f3f3" xlink:href="#aks6b"/><use fill="#fff" fill-opacity="0" stroke="#333" stroke-miterlimit="50" stroke-width=".9" xlink:href="#aks6b"/></g><g><use fill="#d9d9d9" xlink:href="#aks6c"/><use fill="#fff" fill-opacity="0" stroke="#333" stroke-miterlimit="50" stroke-width=".9" xlink:href="#aks6c"/></g><g><use fill="#333" xlink:href="#aks6d"/><use fill="#fff" fill-opacity="0" stroke="#fff" stroke-miterlimit="50" stroke-width=".6" xlink:href="#aks6d"/></g><g><use fill="#333" xlink:href="#aks6e"/><use fill="#fff" fill-opacity="0" stroke="#fff" stroke-miterlimit="50" stroke-width=".6" xlink:href="#aks6e"/></g></g></g></svg>