<svg xmlns="http://www.w3.org/2000/svg" xmlns:xlink="http://www.w3.org/1999/xlink" width="32" height="45" viewBox="0 0 32 45"><defs><path id="x6gca" d="M955.247 1013.689l-1.224 28.347H927.56l-1.191-27.586c2.96-.43 4.152-1.29 8.914-1.29 6.335 0 6.335 1.522 12.685 1.522a25.65 25.65 0 0 0 7.278-.993"/><path id="x6gcb" d="M955.156 1004.51a1.637 1.637 0 0 0-1.187-.51h-26.33a1.638 1.638 0 0 0-1.637 1.72l.38 8.732 1.191 27.586v3.308c0 .913.74 1.654 1.654 1.654h23.154c.913 0 1.654-.74 1.654-1.654v-3.308l1.224-28.347.347-7.971a1.644 1.644 0 0 0-.45-1.21"/></defs><g><g transform="translate(-925 -1003)"><use fill="#ffa955" xlink:href="#x6gca"/></g><g transform="translate(-925 -1003)"><use fill="#fff" fill-opacity="0" stroke="#333" stroke-miterlimit="50" stroke-width=".9" xlink:href="#x6gcb"/></g></g></svg>