<svg xmlns="http://www.w3.org/2000/svg" xmlns:xlink="http://www.w3.org/1999/xlink" width="26" height="45" viewBox="0 0 26 45"><defs><path id="i066a" d="M728.1 1138.9v-29.8h25.8v29.8zm24.412-14.892l-.798-5.95-1.08-7.988h-19.489l-1.078 7.988-.759 5.83c-1.478 7.31 4.113 14.139 11.582 14.139 7.548 0 13.02-6.95 11.622-14.019z"/><path id="i066b" d="M729 1118.01h23.734v20.031H729z"/><path id="i066d" d="M740.857 1138.041c-7.492 0-13.1-6.85-11.618-14.182l.76-5.849h21.715l.801 5.97c1.402 7.09-4.087 14.061-11.658 14.061"/><path id="i066e" d="M752.512 1124.008l-.798-5.95-1.08-7.988h-19.489l-1.078 7.988-.759 5.83c-1.478 7.31 4.113 14.139 11.582 14.139 7.548 0 13.02-6.95 11.622-14.019"/><path id="i066f" d="M752.512 1124.008l-.798-5.95-1.08-7.988h-19.489l-1.078 7.988-.759 5.83c-1.478 7.31 4.113 14.139 11.582 14.139 7.548 0 13.02-6.95 11.622-14.019z"/><path id="i066h" d="M740.9 1138.019c-7.469 0-13.06-6.83-11.582-14.138l.759-5.831h21.646l.8 5.95c1.397 7.07-4.075 14.019-11.623 14.019"/><path id="i066i" d="M744.354 1150.224c-.805 0-1.458-.603-1.458-1.347V1139a15.054 15.054 0 0 1-3.994 0v9.877c0 .744-.652 1.347-1.457 1.347-1.594 0-2.885 1.193-2.885 2.665h12.679c0-1.472-1.292-2.665-2.885-2.665"/><path id="i066j" d="M750.638 1110.07h-19.49l-1.078 7.988h21.647z"/><clipPath id="i066g"><use fill="#fff" xlink:href="#i066a"/></clipPath><clipPath id="i066c"><use xlink:href="#i066b"/></clipPath></defs><g><g transform="translate(-728 -1109)"><g><g/><g clip-path="url(#i066c)"><use fill="#cf5668" xlink:href="#i066d"/></g></g><g><g><use fill="#deecf1" xlink:href="#i066e"/></g><g><use fill="#fff" fill-opacity="0" stroke="#333" stroke-linecap="round" stroke-linejoin="round" stroke-miterlimit="50" stroke-width="1.8" clip-path="url(&quot;#i066g&quot;)" xlink:href="#i066f"/></g><g><use fill="#af2b3f" xlink:href="#i066h"/></g><g><use fill="#fff" xlink:href="#i066i"/><use fill="#fff" fill-opacity="0" stroke="#333" stroke-miterlimit="50" stroke-width=".9" xlink:href="#i066i"/></g><g><use fill="#fff" xlink:href="#i066j"/></g></g></g></g></svg>